<svg width="42" height="42" viewBox="0 0 42 42" fill="none" xmlns="http://www.w3.org/2000/svg">
<path id="Vector" d="M27.864 19.95C27.864 21.231 26.784 22.281 25.416 22.281C24.072 22.281 22.968 21.231 22.968 19.95C22.968 18.669 24.048 17.619 25.416 17.619C26.784 17.619 27.864 18.669 27.864 19.95ZM16.656 17.619C15.288 17.619 14.208 18.669 14.208 19.95C14.208 21.231 15.312 22.281 16.656 22.281C18.024 22.281 19.104 21.231 19.104 19.95C19.128 18.669 18.024 17.619 16.656 17.619ZM42 4.326V42C35.9537 37.3247 37.8874 38.8723 30.864 33.159L32.136 37.044H4.92C2.208 37.044 0 35.112 0 32.718V4.326C0 1.932 2.208 0 4.92 0H37.08C39.792 0 42 1.932 42 4.326ZM35.16 24.234C35.16 17.472 31.704 11.991 31.704 11.991C28.248 9.723 24.96 9.786 24.96 9.786L24.624 10.122C28.704 11.214 30.6 12.789 30.6 12.789C24.899 10.055 18.2021 10.0545 12.672 12.18C11.784 12.537 11.256 12.789 11.256 12.789C11.256 12.789 13.248 11.13 17.568 10.038L17.328 9.786C17.328 9.786 14.04 9.723 10.584 11.991C10.584 11.991 7.128 17.472 7.128 24.234C7.128 24.234 9.144 27.279 14.448 27.426C14.448 27.426 15.336 26.481 16.056 25.683C13.008 24.885 11.856 23.205 11.856 23.205C12.2091 23.4212 12.7913 23.7015 12.84 23.73C16.8909 25.715 22.6451 26.3653 27.816 24.465C28.656 24.192 29.592 23.793 30.576 23.226C30.576 23.226 29.376 24.948 26.232 25.725C26.952 26.523 27.816 27.426 27.816 27.426C33.12 27.279 35.16 24.234 35.16 24.234Z" fill="#78B5EC"/>
</svg>
