<svg width="42" height="42" viewBox="0 0 42 42" fill="none" xmlns="http://www.w3.org/2000/svg">
<path id="Vector" d="M37.5 0H4.5C2.01562 0 0 2.01562 0 4.5V37.5C0 39.9844 2.01562 42 4.5 42H37.5C39.9844 42 42 39.9844 42 37.5V4.5C42 2.01562 39.9844 0 37.5 0ZM32.9156 14.8875C32.9344 15.15 32.9344 15.4219 32.9344 15.6844C32.9344 23.8125 26.7469 33.1781 15.4406 33.1781C11.9531 33.1781 8.71875 32.1656 6 30.4219C6.49687 30.4781 6.975 30.4969 7.48125 30.4969C10.3594 30.4969 13.0031 29.5219 15.1125 27.8719C12.4125 27.8156 10.1438 26.0437 9.36563 23.6062C10.3125 23.7469 11.1656 23.7469 12.1406 23.4938C9.32812 22.9219 7.21875 20.4469 7.21875 17.4562V17.3812C8.03438 17.8406 8.99062 18.1219 9.99375 18.1594C9.1504 17.5984 8.45905 16.8374 7.98138 15.9442C7.50371 15.051 7.25459 14.0535 7.25625 13.0406C7.25625 11.8969 7.55625 10.8469 8.09063 9.9375C11.1188 13.6687 15.6656 16.1063 20.7656 16.3688C19.8937 12.1969 23.0156 8.8125 26.7656 8.8125C28.5375 8.8125 30.1312 9.55312 31.2562 10.7531C32.6437 10.4906 33.975 9.975 35.1562 9.27187C34.6969 10.6969 33.7313 11.8969 32.4563 12.6562C33.6938 12.525 34.8937 12.1781 36 11.7C35.1656 12.9281 34.1156 14.0156 32.9156 14.8875Z" fill="#78B5EC"/>
</svg>
